<svg width="39" height="37" viewBox="0 0 39 37" fill="none" xmlns="http://www.w3.org/2000/svg">
<path d="M22.8907 0.323067L19.2153 7.26227L15.4943 0.350495C15.348 0.0853605 15.0372 -0.0426353 14.7538 0.0579329L8.05228 2.36186C7.70486 2.48071 7.54029 2.88299 7.69572 3.21212L11.5539 11.0839C11.6362 11.2484 11.8739 11.1936 11.883 11.0199L12.2213 5.13206L19.2519 17.4745L26.1911 5.0772L26.5751 10.965C26.5843 11.1479 26.8311 11.1936 26.9042 11.029L30.7076 3.12983C30.8721 2.79156 30.7076 2.39843 30.351 2.27958L23.6312 0.0305052C23.3478 -0.0609205 23.0278 0.0579329 22.8907 0.323067Z" fill="#A01127"/>
<path d="M1.56105 23.6275L9.41451 23.8378L4.87065 30.2468C4.69694 30.4936 4.72437 30.8319 4.94379 31.0422L9.98135 36.0249C10.2465 36.29 10.6762 36.2534 10.9047 35.9609L16.244 29.0125C16.3537 28.8662 16.1983 28.6742 16.0337 28.7474L10.603 31.0513L18.5479 19.2757L4.36781 18.5534L9.46936 15.6004C9.62479 15.5089 9.56079 15.2712 9.37794 15.2712L0.610219 15.3627C0.235374 15.3627 -0.048046 15.6918 0.00680939 16.0666L0.966779 23.0881C1.00335 23.3898 1.25934 23.6093 1.56105 23.6184V23.6275Z" fill="#A01127"/>
<path d="M33.7246 30.6581L29.3636 24.1212H37.2171C37.5188 24.1394 37.7748 23.92 37.8296 23.6183L38.9907 16.6243C39.0547 16.2586 38.7804 15.9203 38.4056 15.9111L29.647 15.5637C29.4642 15.5637 29.391 15.7923 29.5464 15.8837L34.5657 18.983L20.3673 19.2939L27.9739 31.2889L22.6164 28.8296C22.4518 28.7564 22.2964 28.9484 22.4061 29.0947L27.5442 36.1985C27.7636 36.5002 28.1933 36.5368 28.4676 36.2899L33.6423 31.4535C33.8617 31.2432 33.8983 30.9141 33.7337 30.6581H33.7246Z" fill="#A01127"/>
</svg>
