<?xml version="1.0" encoding="UTF-8"?>
<svg id="Capa_2" data-name="Capa 2" xmlns="http://www.w3.org/2000/svg" xmlns:xlink="http://www.w3.org/1999/xlink" viewBox="0 0 1055.18 219.39">
  <defs>
    <style>
      .cls-1 {
        fill: url(#Degradado_sin_nombre_28);
      }

      .cls-2 {
        fill: url(#Degradado_sin_nombre_28-2);
      }

      .cls-3 {
        fill: url(#Degradado_sin_nombre_28-5);
      }

      .cls-4 {
        fill: #fff;
      }

      .cls-5 {
        fill: url(#Degradado_sin_nombre_2-4);
      }

      .cls-6 {
        fill: url(#Degradado_sin_nombre_28-4);
      }

      .cls-7 {
        fill: url(#Degradado_sin_nombre_2);
      }

      .cls-8 {
        fill: url(#Degradado_sin_nombre_28-3);
      }

      .cls-9 {
        fill: url(#Degradado_sin_nombre_9);
      }

      .cls-10 {
        fill: url(#Degradado_sin_nombre_7);
      }

      .cls-11 {
        fill: url(#Degradado_sin_nombre_28-6);
      }

      .cls-12 {
        fill: url(#Degradado_sin_nombre_2-5);
      }

      .cls-13 {
        fill: url(#Degradado_sin_nombre_2-3);
      }

      .cls-14 {
        fill: url(#Degradado_sin_nombre_7-2);
      }

      .cls-15 {
        fill: url(#Degradado_sin_nombre_2-2);
      }
    </style>
    <linearGradient id="Degradado_sin_nombre_7" data-name="Degradado sin nombre 7" x1="616.3" y1="80.34" x2="560.16" y2="80.34" gradientUnits="userSpaceOnUse">
      <stop offset=".1" stop-color="#fff" stop-opacity="0"/>
      <stop offset=".13" stop-color="#fff" stop-opacity=".1"/>
      <stop offset=".23" stop-color="#fff" stop-opacity=".41"/>
      <stop offset=".33" stop-color="#fff" stop-opacity=".66"/>
      <stop offset=".41" stop-color="#fff" stop-opacity=".85"/>
      <stop offset=".47" stop-color="#fff" stop-opacity=".96"/>
      <stop offset=".5" stop-color="#fff"/>
    </linearGradient>
    <linearGradient id="Degradado_sin_nombre_9" data-name="Degradado sin nombre 9" x1="605.99" y1="87.57" x2="560.16" y2="87.57" gradientUnits="userSpaceOnUse">
      <stop offset=".1" stop-color="#fff" stop-opacity="0"/>
      <stop offset=".14" stop-color="#fff" stop-opacity=".1"/>
      <stop offset=".27" stop-color="#fff" stop-opacity=".41"/>
      <stop offset=".39" stop-color="#fff" stop-opacity=".66"/>
      <stop offset=".48" stop-color="#fff" stop-opacity=".85"/>
      <stop offset=".56" stop-color="#fff" stop-opacity=".96"/>
      <stop offset=".6" stop-color="#fff"/>
    </linearGradient>
    <linearGradient id="Degradado_sin_nombre_2" data-name="Degradado sin nombre 2" x1="47.34" y1="3.85" x2="47.34" y2="129.23" gradientUnits="userSpaceOnUse">
      <stop offset="0" stop-color="#fff" stop-opacity="0"/>
      <stop offset=".03" stop-color="#fff" stop-opacity=".1"/>
      <stop offset=".13" stop-color="#fff" stop-opacity=".41"/>
      <stop offset=".23" stop-color="#fff" stop-opacity=".66"/>
      <stop offset=".31" stop-color="#fff" stop-opacity=".85"/>
      <stop offset=".37" stop-color="#fff" stop-opacity=".96"/>
      <stop offset=".4" stop-color="#fff"/>
    </linearGradient>
    <linearGradient id="Degradado_sin_nombre_2-2" data-name="Degradado sin nombre 2" x1="-1364.2" y1="613.31" x2="-1364.2" y2="738.69" gradientTransform="translate(-441.1 742.54) rotate(-180)" xlink:href="#Degradado_sin_nombre_2"/>
    <linearGradient id="Degradado_sin_nombre_2-3" data-name="Degradado sin nombre 2" x1="-1957.41" y1="1219.54" x2="-1957.41" y2="1275.41" gradientTransform="translate(1581.6 2022.7) rotate(90)" xlink:href="#Degradado_sin_nombre_2"/>
    <linearGradient id="Degradado_sin_nombre_2-4" data-name="Degradado sin nombre 2" x1="804" y1="4.45" x2="804" y2="131.46" xlink:href="#Degradado_sin_nombre_2"/>
    <linearGradient id="Degradado_sin_nombre_28" data-name="Degradado sin nombre 28" x1="864.19" y1="4.07" x2="864.19" y2="101.54" gradientUnits="userSpaceOnUse">
      <stop offset=".6" stop-color="#fff"/>
      <stop offset=".63" stop-color="#fff" stop-opacity=".96"/>
      <stop offset=".69" stop-color="#fff" stop-opacity=".85"/>
      <stop offset=".77" stop-color="#fff" stop-opacity=".66"/>
      <stop offset=".87" stop-color="#fff" stop-opacity=".41"/>
      <stop offset=".97" stop-color="#fff" stop-opacity=".1"/>
      <stop offset="1" stop-color="#fff" stop-opacity="0"/>
    </linearGradient>
    <linearGradient id="Degradado_sin_nombre_28-2" data-name="Degradado sin nombre 28" x1="870.89" x2="870.89" y2="109.84" xlink:href="#Degradado_sin_nombre_28"/>
    <linearGradient id="Degradado_sin_nombre_28-3" data-name="Degradado sin nombre 28" x1="857.43" x2="857.43" y2="93.16" xlink:href="#Degradado_sin_nombre_28"/>
    <linearGradient id="Degradado_sin_nombre_28-4" data-name="Degradado sin nombre 28" x1="166.45" y1="2.86" x2="166.45" y2="80.29" xlink:href="#Degradado_sin_nombre_28"/>
    <linearGradient id="Degradado_sin_nombre_28-5" data-name="Degradado sin nombre 28" x1="691.32" y1="2.86" x2="691.32" y2="80.29" xlink:href="#Degradado_sin_nombre_28"/>
    <linearGradient id="Degradado_sin_nombre_7-2" data-name="Degradado sin nombre 7" x1="625.06" y1="73.18" y2="73.18" xlink:href="#Degradado_sin_nombre_7"/>
    <linearGradient id="Degradado_sin_nombre_28-6" data-name="Degradado sin nombre 28" x1="437.27" y1="131.74" x2="437.27" y2="3.85" xlink:href="#Degradado_sin_nombre_28"/>
    <linearGradient id="Degradado_sin_nombre_2-5" data-name="Degradado sin nombre 2" x1="976.28" y1="48.93" x2="1055.18" y2="48.93" xlink:href="#Degradado_sin_nombre_2"/>
  </defs>
  <g id="Capa_1-2" data-name="Capa 1">
    <g>
      <path class="cls-4" d="M318.67,176.82c-2.3-2.18-5.03-3.88-8.21-5.11-3.18-1.23-6.67-1.84-10.47-1.84h-16.9v48.69h16.9c3.8,0,7.29-.63,10.47-1.88,3.18-1.25,5.91-2.97,8.21-5.15,2.3-2.18,4.07-4.76,5.32-7.76,1.25-2.99,1.88-6.2,1.88-9.63s-.63-6.63-1.88-9.6c-1.25-2.97-3.03-5.54-5.32-7.72ZM318.74,201.86c-.95,2.32-2.3,4.35-4.03,6.09-1.74,1.74-3.86,3.1-6.37,4.07-2.5.97-5.29,1.46-8.35,1.46h-11.41v-38.54h11.41c3.06,0,5.84.5,8.35,1.5,2.5,1,4.63,2.37,6.37,4.1,1.74,1.74,3.08,3.79,4.03,6.16.95,2.37,1.43,4.89,1.43,7.58s-.48,5.26-1.43,7.58Z"/>
      <rect class="cls-4" x="349.11" y="169.87" width="5.5" height="48.69"/>
      <path class="cls-4" d="M409.45,196.54c-2.57-2.14-6.57-3.81-12-5.02-2.69-.56-4.89-1.15-6.61-1.78-1.72-.63-3.06-1.32-4.03-2.09-.97-.77-1.65-1.61-2.02-2.54-.37-.93-.56-1.97-.56-3.14s.24-2.16.73-3.13c.49-.98,1.18-1.81,2.09-2.51s1.99-1.25,3.27-1.67c1.28-.42,2.7-.63,4.28-.63,2.5,0,4.9.42,7.2,1.25,2.3.83,4.58,2.18,6.85,4.03l3.2-4.24c-2.5-1.98-5.09-3.46-7.76-4.44-2.67-.98-5.79-1.48-9.36-1.48-2.32,0-4.45.34-6.4,1.01-1.95.67-3.64,1.6-5.08,2.79-1.44,1.18-2.55,2.59-3.34,4.21-.79,1.63-1.18,3.41-1.18,5.36s.32,3.81.98,5.3c.65,1.49,1.65,2.79,3,3.9,1.35,1.11,3.06,2.07,5.13,2.86,2.07.79,4.5,1.49,7.29,2.09,2.56.56,4.66,1.14,6.31,1.74,1.65.6,2.94,1.28,3.87,2.02.93.74,1.58,1.57,1.95,2.47.37.91.56,1.94.56,3.1,0,2.51-.99,4.53-2.96,6.06-1.97,1.53-4.6,2.3-7.9,2.3s-6.38-.57-8.97-1.7c-2.6-1.14-5.17-2.86-7.72-5.18l-3.41,4.03c2.92,2.63,5.99,4.58,9.22,5.84,3.22,1.26,6.78,1.89,10.68,1.89,2.41,0,4.64-.33,6.68-.98,2.04-.65,3.78-1.58,5.23-2.79,1.45-1.21,2.58-2.67,3.41-4.39s1.24-3.62,1.24-5.71c0-3.76-1.29-6.71-3.86-8.85Z"/>
      <path class="cls-4" d="M466.66,212.47c-2.41,1.23-5.29,1.84-8.63,1.84-2.69,0-5.18-.52-7.48-1.56-2.3-1.04-4.29-2.47-5.98-4.28-1.69-1.81-3.02-3.94-3.97-6.4-.95-2.46-1.43-5.1-1.43-7.93s.47-5.46,1.43-7.89c.95-2.43,2.27-4.56,3.97-6.36,1.69-1.81,3.69-3.22,5.98-4.24,2.3-1.02,4.79-1.53,7.48-1.53,3.34,0,6.2.63,8.59,1.88,2.39,1.25,4.63,2.85,6.71,4.8l3.76-4.03c-1.21-1.16-2.46-2.21-3.76-3.17-1.3-.95-2.71-1.76-4.24-2.43-1.53-.67-3.19-1.19-4.97-1.56-1.79-.37-3.79-.56-6.02-.56-3.57,0-6.86.66-9.88,1.98-3.02,1.32-5.61,3.13-7.79,5.43-2.18,2.3-3.88,4.97-5.11,8.03-1.23,3.06-1.84,6.33-1.84,9.81s.61,6.82,1.84,9.88c1.23,3.06,2.93,5.72,5.11,7.96,2.18,2.25,4.75,4.02,7.72,5.32,2.97,1.3,6.21,1.95,9.74,1.95,2.23,0,4.24-.21,6.05-.63s3.5-1,5.08-1.74c1.58-.74,3.05-1.64,4.42-2.68,1.37-1.04,2.68-2.21,3.93-3.51l-3.62-3.55c-2.32,2.23-4.68,3.95-7.1,5.18Z"/>
      <path class="cls-4" d="M537.4,176.51c-2.18-2.3-4.79-4.11-7.83-5.46-3.04-1.34-6.41-2.02-10.12-2.02s-7.09.69-10.16,2.05c-3.06,1.37-5.68,3.21-7.86,5.53-2.18,2.32-3.87,5-5.08,8.03-1.21,3.04-1.81,6.25-1.81,9.63s.59,6.6,1.77,9.63c1.18,3.04,2.86,5.7,5.04,8,2.18,2.3,4.79,4.12,7.83,5.46,3.04,1.34,6.41,2.02,10.12,2.02s7.1-.69,10.16-2.05c3.06-1.37,5.68-3.21,7.86-5.53,2.18-2.32,3.87-5,5.08-8.03,1.2-3.04,1.81-6.25,1.81-9.63s-.59-6.6-1.77-9.63c-1.18-3.04-2.86-5.7-5.04-8ZM537.09,202.11c-.95,2.43-2.26,4.56-3.93,6.36-1.67,1.81-3.68,3.23-6.02,4.28-2.34,1.04-4.9,1.56-7.69,1.56s-5.35-.53-7.69-1.6c-2.34-1.07-4.37-2.5-6.09-4.31-1.72-1.81-3.05-3.94-4-6.4-.95-2.46-1.43-5.08-1.43-7.86s.47-5.39,1.43-7.83c.95-2.43,2.26-4.56,3.93-6.36s3.67-3.23,6.02-4.28c2.34-1.04,4.9-1.56,7.69-1.56s5.34.53,7.69,1.6c2.34,1.07,4.37,2.5,6.09,4.31,1.72,1.81,3.05,3.94,4,6.4.95,2.46,1.43,5.08,1.43,7.86s-.48,5.39-1.43,7.83Z"/>
      <polygon class="cls-4" points="560.15 174.95 576.5 174.95 576.5 218.56 581.99 218.56 581.99 174.95 598.34 174.95 598.34 169.87 560.15 169.87 560.15 174.95"/>
      <polygon class="cls-4" points="625.33 196.51 651.9 196.51 651.9 191.5 625.33 191.5 625.33 174.88 655.03 174.88 655.03 169.87 619.83 169.87 619.83 218.56 655.38 218.56 655.38 213.55 625.33 213.55 625.33 196.51"/>
      <path class="cls-4" d="M708.59,212.47c-2.41,1.23-5.29,1.84-8.63,1.84-2.69,0-5.18-.52-7.48-1.56-2.3-1.04-4.29-2.47-5.98-4.28-1.69-1.81-3.02-3.94-3.97-6.4-.95-2.46-1.43-5.1-1.43-7.93s.48-5.46,1.43-7.89c.95-2.43,2.27-4.56,3.97-6.36,1.69-1.81,3.69-3.22,5.98-4.24,2.3-1.02,4.79-1.53,7.48-1.53,3.34,0,6.2.63,8.59,1.88,2.39,1.25,4.63,2.85,6.71,4.8l3.76-4.03c-1.21-1.16-2.46-2.21-3.76-3.17-1.3-.95-2.71-1.76-4.24-2.43-1.53-.67-3.19-1.19-4.97-1.56-1.79-.37-3.79-.56-6.02-.56-3.57,0-6.86.66-9.88,1.98-3.02,1.32-5.61,3.13-7.79,5.43-2.18,2.3-3.88,4.97-5.11,8.03-1.23,3.06-1.84,6.33-1.84,9.81s.61,6.82,1.84,9.88c1.23,3.06,2.93,5.72,5.11,7.96,2.18,2.25,4.75,4.02,7.72,5.32,2.97,1.3,6.21,1.95,9.74,1.95,2.23,0,4.24-.21,6.05-.63s3.5-1,5.08-1.74c1.58-.74,3.05-1.64,4.42-2.68,1.37-1.04,2.68-2.21,3.93-3.51l-3.62-3.55c-2.32,2.23-4.68,3.95-7.09,5.18Z"/>
      <path class="cls-4" d="M763.19,169.52h-5.15l-22.19,49.04h5.63l5.77-12.87h26.5l5.7,12.87h5.91l-22.19-49.04ZM749.42,200.82l11.13-24.83,11.06,24.83h-22.19Z"/>
    </g>
    <g>
      <rect class="cls-10" x="560.16" y="78.83" width="56.14" height="3.03"/>
      <rect class="cls-9" x="560.16" y="86.05" width="45.83" height="3.03"/>
      <path class="cls-7" d="M94.67,129.23H0V3.85h3.11v122.26h91.56v3.11ZM94.67,118.76H10.47V3.85h-3.11v118.02h87.32v-3.11ZM94.67,111.33H17.89V3.85h-3.11v110.59h79.89v-3.11Z"/>
      <path class="cls-15" d="M928.85,3.85h3.07v125.37h-3.07V3.85ZM921.59,129.23h3.07V3.85h-3.07v125.37ZM914.27,129.23h3.07V3.85h-3.07v125.37Z"/>
      <path class="cls-13" d="M306.19,59.46v-3.11h55.87v3.11h-55.87ZM362.06,66.82v-3.11h-55.87v3.11h55.87ZM362.06,74.24v-3.11h-55.87v3.11h55.87Z"/>
      <path class="cls-5" d="M841.64,114.85l-59.23-110.4h3.78l57.36,106.9-1.9,3.5ZM834.51,127.96L768.25,4.45h-3.78l68.14,127,1.9-3.5ZM839.05,119.62l-61.79-115.17h-3.78l63.67,118.67,1.9-3.5Z"/>
      <g>
        <polygon class="cls-1" points="838.99 101.54 891.28 4.07 887.5 4.07 837.09 98.02 838.99 101.54"/>
        <polygon class="cls-2" points="843.46 109.84 900.21 4.07 896.43 4.07 841.56 106.32 843.46 109.84"/>
        <polygon class="cls-8" points="834.48 93.16 882.27 4.07 878.5 4.07 832.58 89.64 834.48 93.16"/>
      </g>
      <path class="cls-6" d="M190.24,80.29h-3.76l-20.03-37.33-20.03,37.33h-3.76l23.79-44.34,23.79,44.34ZM137.53,80.29l28.91-53.89,28.91,53.89h3.76l-30.79-57.39.03-.05-1.88-3.5-.03.05-.03-.05-1.88,3.5.03.05-30.79,57.39h3.76ZM128.57,80.29L166.45,9.7l37.87,70.59h3.76L166.54,2.86l-.09.17-.09-.17-41.54,77.43h3.76Z"/>
      <path class="cls-3" d="M715.11,80.29h-3.76l-20.03-37.33-20.03,37.33h-3.76l23.79-44.34,23.79,44.34ZM662.4,80.29l28.91-53.89,28.91,53.89h3.76l-30.79-57.39.03-.05-1.88-3.5-.03.05-.03-.05-1.88,3.5.03.05-30.79,57.39h3.76ZM653.44,80.29l37.87-70.59,37.87,70.59h3.76L691.41,2.86l-.09.17-.09-.17-41.54,77.43h3.76Z"/>
      <rect class="cls-14" x="560.16" y="71.66" width="64.9" height="3.03"/>
      <g>
        <rect class="cls-4" x="966.33" y="3.85" width="3.07" height="125.37"/>
        <rect class="cls-4" x="959.01" y="3.85" width="3.07" height="125.37"/>
        <rect class="cls-4" x="973.59" y="3.85" width="3.07" height="125.37"/>
        <polygon class="cls-4" points="285.13 129.23 288.24 129.23 288.24 6.97 368.21 6.97 368.21 3.85 285.13 3.85 285.13 129.23"/>
        <polygon class="cls-4" points="299.91 129.23 303.02 129.23 303.02 21.75 368.21 21.75 368.21 18.63 299.91 18.63 299.91 129.23"/>
        <polygon class="cls-4" points="292.48 129.23 295.6 129.23 295.6 14.33 368.21 14.33 368.21 11.21 292.48 11.21 292.48 129.23"/>
        <polygon class="cls-4" points="202.52 87.73 199.36 87.73 133.54 87.73 129.78 87.73 107.51 129.23 111.27 129.23 131.86 90.86 201.03 90.86 221.62 129.23 225.38 129.23 203.12 87.73 202.52 87.73"/>
        <polygon class="cls-4" points="204.32 80.29 204.35 80.35 128.54 80.35 128.57 80.29 124.81 80.29 98.55 129.23 102.31 129.23 126.86 83.48 206.03 83.48 230.58 129.23 234.34 129.23 208.08 80.29 204.32 80.29"/>
        <polygon class="cls-4" points="198.02 95.18 194.47 95.18 138.42 95.18 135.57 95.18 134.67 95.18 116.4 129.23 120.16 129.23 136.75 98.31 196.14 98.31 212.74 129.23 216.49 129.23 198.23 95.18 198.02 95.18"/>
        <polygon class="cls-4" points="729.19 80.29 729.22 80.35 653.41 80.35 653.44 80.29 649.68 80.29 623.42 129.23 627.18 129.23 651.73 83.48 730.9 83.48 755.45 129.23 759.21 129.23 732.95 80.29 729.19 80.29"/>
        <polygon class="cls-4" points="727.39 87.73 724.22 87.73 658.41 87.73 654.65 87.73 632.38 129.23 636.14 129.23 656.73 90.86 725.9 90.86 746.49 129.23 750.25 129.23 727.99 87.73 727.39 87.73"/>
        <polygon class="cls-4" points="722.89 95.18 719.34 95.18 663.29 95.18 660.44 95.18 659.53 95.18 641.27 129.23 645.03 129.23 661.62 98.31 721.01 98.31 737.6 129.23 741.36 129.23 723.1 95.18 722.89 95.18"/>
        <path class="cls-4" d="M563.06,17.13c15.93,0,30.1,7.71,38.96,19.59h3.67c-9.29-13.62-24.94-22.59-42.64-22.59-28.44,0-51.57,23.14-51.57,51.57s23.14,51.57,51.57,51.57c20.39,0,38.05-11.9,46.41-29.11h-3.35c-8.12,15.51-24.37,26.12-43.06,26.12-26.79,0-48.58-21.79-48.58-48.58s21.79-48.58,48.58-48.58Z"/>
        <path class="cls-4" d="M614.02,36.73c-10.11-17.7-29.16-29.66-50.97-29.66-32.34,0-58.64,26.31-58.64,58.64s26.31,58.64,58.64,58.64c26.74,0,49.35-17.99,56.37-42.5h-3.12c-6.94,22.84-28.18,39.51-53.25,39.51-30.69,0-55.65-24.97-55.65-55.65s24.97-55.65,55.65-55.65c20.07,0,37.7,10.68,47.49,26.66h3.48Z"/>
        <path class="cls-4" d="M625.13,74.7c-4.37,30.34-30.54,53.73-62.08,53.73-34.59,0-62.72-28.14-62.72-62.72s28.14-62.72,62.72-62.72c24.13,0,45.12,13.7,55.61,33.73h3.36c-10.73-21.74-33.13-36.73-58.97-36.73-36.24,0-65.72,29.48-65.72,65.72s29.48,65.72,65.72,65.72c33.19,0,60.7-24.73,65.1-56.73h-3.02Z"/>
      </g>
      <path class="cls-11" d="M401.41,81.4V3.85h2.55v77.54c0,18.37,14.94,33.31,33.31,33.31s33.31-14.94,33.31-33.31V3.85h2.55v77.54c0,19.78-16.09,35.87-35.87,35.87s-35.87-16.09-35.87-35.87ZM485.06,3.85v77.54c0,26.35-21.44,47.79-47.79,47.79h0c-26.35,0-47.79-21.44-47.79-47.79V3.85h-2.55v77.54c0,27.76,22.58,50.34,50.34,50.34s50.34-22.58,50.34-50.34V3.85h-2.55ZM437.27,124.5c23.77,0,43.1-19.34,43.1-43.1V3.85h-2.55v77.54c0,22.36-18.19,40.55-40.55,40.55s-40.55-18.19-40.55-40.55V3.85h-2.55v77.54c0,23.77,19.34,43.1,43.1,43.1Z"/>
      <path class="cls-12" d="M1009.61,86.88h-33.33v-3.02h33.29c19.16,0,35.16-15.22,35.45-34.38.3-19.5-15.48-35.46-34.92-35.46h-33.82v-3.02h33.82c21.05,0,38.15,17.22,37.94,38.32-.2,20.89-17.54,37.57-38.42,37.57ZM1040.9,48.46c-.26-16.9-14.36-30.33-31.27-30.33h-33.35v3.02h33.4c15.25,0,27.97,12.11,28.2,27.35.24,15.52-12.32,28.22-27.78,28.22h-33.82v3.02h33.82c17.15,0,31.06-14.08,30.8-31.28ZM1009.52,3.85h-33.24v3.02h33.28c23.16,0,42.37,18.49,42.59,41.64.23,23.38-18.73,42.47-42.06,42.47h-33.82v3.02h33.82c25.01,0,45.32-20.46,45.08-45.52-.24-24.82-20.83-44.64-45.65-44.64Z"/>
    </g>
  </g>
</svg>