<svg width="818" height="765" viewBox="0 0 818 765" fill="none" xmlns="http://www.w3.org/2000/svg">
<path d="M480.561 7.00586C483.316 1.6794 489.763 -0.731739 495.491 1.11328V1.11426L636.434 48.2871C643.625 50.6841 646.942 58.6031 643.622 65.4277L643.621 65.4297L563.848 231.109L563.843 231.123C562.527 234.083 558.061 233.28 557.895 229.959V229.951L549.841 106.458L549.731 104.772L548.906 106.247L403.792 365.499L256.768 107.395L255.931 105.926L255.835 107.613L248.739 231.106V231.108C248.574 234.242 244.277 235.243 242.782 232.253L161.862 67.1523C158.781 60.6182 161.954 52.6583 168.728 50.1279L169.053 50.0117L309.614 1.6875L309.618 1.68652C315.317 -0.335831 321.588 2.23253 324.546 7.59277L402.59 152.559L403.033 153.383L403.471 152.556L480.558 7.00977L480.561 7.00586Z" stroke="url(#paint0_linear_15_14)" stroke-opacity="0.25"/>
<path d="M196.697 320.804C200.026 320.805 201.176 325.117 198.363 326.775L91.3613 388.713L89.8994 389.559L91.5869 389.645L388.12 404.749L221.978 651.001L221.033 652.401L222.587 651.742L336.492 603.417L336.5 603.415C339.392 602.129 342.12 605.354 340.48 607.967L340.308 608.218L228.323 753.951C223.705 759.858 215.045 760.583 209.706 755.245L209.704 755.243L104.045 650.734L104.039 650.728L103.636 650.324C99.5898 646.07 99.172 639.521 102.566 634.696L197.871 500.272L198.413 499.508L197.477 499.483L33.2422 495.085V494.895L32.7568 494.88C26.6604 494.696 21.5101 490.266 20.7744 484.199L20.7734 484.191L0.638672 336.919L0.637695 336.915L0.59082 336.561C-0.290148 329.146 5.36318 322.722 12.7988 322.722H12.8037L196.697 320.804Z" stroke="url(#paint1_linear_15_14)" stroke-opacity="0.25"/>
<path d="M805.512 334.226L805.52 334.227C813.075 334.411 818.602 341.227 817.312 348.598V348.602L792.96 495.29C791.85 501.394 786.684 505.793 780.634 505.427L780.619 505.426H614.948L615.467 506.204L706.935 643.312L707.084 643.534H707.263C710.421 648.669 709.642 655.171 705.284 659.352L596.756 760.786C591.302 765.694 582.818 765.048 578.337 759.228L578.127 758.946L470.358 609.95H470.359L470.353 609.943L470.181 609.692C468.541 607.079 471.269 603.854 474.161 605.139L586.526 656.72L588.062 657.425L587.157 655.998L428.087 405.157L725.005 398.657L726.695 398.62L725.257 397.732L619.98 332.726L619.971 332.72L619.719 332.558C618.518 331.713 618.222 330.387 618.589 329.228C618.982 327.987 620.136 326.944 621.816 326.939L805.512 334.226Z" stroke="url(#paint2_linear_15_14)" stroke-opacity="0.25"/>
<defs>
<linearGradient id="paint0_linear_15_14" x1="402.797" y1="0" x2="402.797" y2="366.517" gradientUnits="userSpaceOnUse">
<stop stop-color="#A01127"/>
<stop offset="1" stop-color="#3A060E"/>
</linearGradient>
<linearGradient id="paint1_linear_15_14" x1="194.515" y1="320.304" x2="194.515" y2="759.349" gradientUnits="userSpaceOnUse">
<stop stop-color="#A01127"/>
<stop offset="1" stop-color="#3A060E"/>
</linearGradient>
<linearGradient id="paint2_linear_15_14" x1="622.596" y1="326.439" x2="622.596" y2="764.572" gradientUnits="userSpaceOnUse">
<stop stop-color="#A01127"/>
<stop offset="1" stop-color="#3A060E"/>
</linearGradient>
</defs>
</svg>
