<svg width="21" height="20" viewBox="0 0 21 20" fill="none" xmlns="http://www.w3.org/2000/svg">
<path d="M12.3257 0.174631L10.3467 3.92555L8.34306 0.189457C8.26428 0.0461408 8.09693 -0.0230461 7.94433 0.0313151L4.33582 1.27668C4.14874 1.34092 4.06013 1.55837 4.14382 1.73628L6.2213 5.9913C6.26562 6.08022 6.39361 6.05059 6.39851 5.9567L6.58067 2.77409L10.3664 9.44568L14.1029 2.74443L14.3096 5.92703C14.3146 6.02589 14.4475 6.05059 14.4868 5.96162L16.5348 1.6918C16.6234 1.50895 16.5348 1.29645 16.3428 1.23221L12.7245 0.0164893C12.5719 -0.03293 12.3996 0.0313151 12.3257 0.174631Z" fill="#282828"/>
<path d="M0.840565 12.7716L5.06935 12.8852L2.62266 16.3496C2.52912 16.483 2.54389 16.6658 2.66204 16.7795L5.37457 19.4729C5.51735 19.6162 5.74872 19.5964 5.87176 19.4383L8.74677 15.6824C8.80584 15.6033 8.72216 15.4995 8.63353 15.5391L5.70931 16.7844L9.98733 10.4192L2.3519 10.0288L5.09889 8.43258C5.18258 8.38313 5.14812 8.25464 5.04966 8.25464L0.328579 8.3041C0.12674 8.3041 -0.0258709 8.48199 0.00366659 8.68458L0.520573 12.48C0.540265 12.6431 0.678106 12.7617 0.840565 12.7666V12.7716Z" fill="#282828"/>
<path d="M18.1594 16.572L15.8112 13.0385H20.04C20.2025 13.0484 20.3403 12.9298 20.3698 12.7667L20.995 8.98614C21.0295 8.78846 20.8818 8.6056 20.68 8.60063L15.9638 8.41284C15.8654 8.41284 15.826 8.53641 15.9096 8.58582L18.6123 10.2611L10.967 10.4292L15.0629 16.9129L12.1781 15.5836C12.0895 15.544 12.0058 15.6478 12.0649 15.7269L14.8315 19.5668C14.9497 19.7299 15.181 19.7497 15.3287 19.6162L18.1151 17.0019C18.2333 16.8882 18.253 16.7104 18.1643 16.572H18.1594Z" fill="#282828"/>
</svg>
