<svg width="38" height="29" viewBox="0 0 38 29" fill="none" xmlns="http://www.w3.org/2000/svg">
<path d="M25.0551 0.536149L19.0182 12.0522L12.9062 0.581667C12.6659 0.141661 12.1553 -0.0707559 11.6898 0.096143L0.682179 3.91964C0.111525 4.11689 -0.158785 4.78448 0.0965076 5.3307L6.43377 18.3943C6.56892 18.6674 6.95937 18.5764 6.97439 18.2881L7.53002 8.51695L19.0782 29L30.4763 8.42592L31.107 18.1971C31.122 18.5005 31.5275 18.5764 31.6476 18.3033L37.8948 5.19415C38.1651 4.63276 37.8948 3.98034 37.3091 3.78309L26.2715 0.0506251C25.806 -0.101101 25.2804 0.096143 25.0551 0.536149Z" fill="#F20F0F"/>
</svg>
