<svg width="227" height="24" viewBox="0 0 227 24" fill="none" xmlns="http://www.w3.org/2000/svg">
<path d="M17.641 2.22168H24.5349V23.6124H19.1351V11.4962L14.1023 23.6124H10.4588L5.42598 11.4962V23.6124H0V2.22168H6.97252L12.3199 15.1905L17.641 2.22168Z" fill="black"/>
<path d="M42.1497 21.6231C40.4983 23.199 38.4275 23.9999 35.9636 23.9999C33.4996 23.9999 31.4288 23.199 29.7774 21.6231C28.126 20.0472 27.2872 18.0838 27.2872 15.7071C27.2872 13.3303 28.126 11.3928 29.7774 9.79106C31.4288 8.21517 33.4996 7.41431 35.9636 7.41431C38.4275 7.41431 40.4983 8.21517 42.1497 9.79106C43.8011 11.3669 44.6399 13.3303 44.6399 15.7071C44.6399 18.0838 43.8011 20.0214 42.1497 21.6231ZM33.4734 18.1613C34.1287 18.8072 34.9675 19.143 35.9373 19.143C36.9072 19.143 37.746 18.8072 38.4013 18.1613C39.0566 17.5155 39.3712 16.6888 39.3712 15.7329C39.3712 14.7771 39.0566 13.9504 38.4013 13.3045C37.746 12.6587 36.9334 12.3228 35.9373 12.3228C34.9413 12.3228 34.1287 12.6587 33.4734 13.3045C32.8181 13.9504 32.4773 14.7771 32.4773 15.7329C32.4773 16.6888 32.8181 17.5155 33.4734 18.1613Z" fill="black"/>
<path d="M56.4879 12.4003H53.2113V17.5154C53.2113 18.523 53.7618 19.0397 54.8365 19.0397H56.4617V23.6382H54.0764C50.0921 23.6382 48.0999 21.8814 48.0999 18.368V12.4261H45.7932V7.82761H46.999C47.9164 7.82761 48.3882 7.3626 48.3882 6.4584V3.71997H53.2113V7.80178H56.4879V12.4003Z" fill="black"/>
<path d="M61.8615 6.09683C60.9702 6.09683 60.2363 5.81266 59.6334 5.21847C59.0305 4.65012 58.7422 3.92676 58.7422 3.04839C58.7422 2.17003 59.0305 1.42084 59.6334 0.852485C60.2363 0.284132 60.9702 -0.0258789 61.8615 -0.0258789C62.7527 -0.0258789 63.5129 0.258298 64.0895 0.852485C64.6662 1.42084 64.9808 2.17003 64.9808 3.04839C64.9808 3.92676 64.6924 4.65012 64.0895 5.21847C63.5129 5.78682 62.7527 6.09683 61.8615 6.09683ZM59.3189 23.6124V7.80189H64.4041V23.6124H59.3189Z" fill="black"/>
<path d="M81.8877 21.6231C80.2364 23.199 78.1656 23.9999 75.7016 23.9999C73.2376 23.9999 71.1668 23.199 69.5155 21.6231C67.8641 20.0472 67.0253 18.0838 67.0253 15.7071C67.0253 13.3303 67.8641 11.3928 69.5155 9.79106C71.1668 8.21517 73.2376 7.41431 75.7016 7.41431C78.1656 7.41431 80.2364 8.21517 81.8877 9.79106C83.5391 11.3669 84.3779 13.3303 84.3779 15.7071C84.3779 18.0838 83.5391 20.0214 81.8877 21.6231ZM73.2114 18.1613C73.8667 18.8072 74.7055 19.143 75.6754 19.143C76.6452 19.143 77.484 18.8072 78.1394 18.1613C78.7947 17.5155 79.1092 16.6888 79.1092 15.7329C79.1092 14.7771 78.7947 13.9504 78.1394 13.3045C77.484 12.6587 76.6715 12.3228 75.6754 12.3228C74.6793 12.3228 73.8667 12.6587 73.2114 13.3045C72.5561 13.9504 72.2153 14.7771 72.2153 15.7329C72.2153 16.6888 72.5561 17.5155 73.2114 18.1613Z" fill="black"/>
<path d="M103.775 18.7555H104.116V23.6124H102.7C99.2142 23.6124 97.4841 21.959 97.4841 18.678V15.0096C97.4841 14.1829 97.2482 13.5112 96.7502 13.0203C96.2784 12.5295 95.6231 12.2711 94.8367 12.2711C93.9455 12.2711 93.2377 12.5295 92.7135 13.0203C92.1892 13.537 91.9009 14.2087 91.9009 15.0612V23.5865H86.8157V7.80182H91.9009V9.37771C93.1067 8.086 94.627 7.41431 96.5143 7.41431C98.4016 7.41431 99.7646 7.95683 100.892 9.04186C101.993 10.1269 102.569 11.5478 102.569 13.3303V17.5413C102.569 18.3164 102.963 18.7297 103.775 18.7297V18.7555Z" fill="black"/>
<path d="M121.547 2.22168C124.745 2.22168 127.393 3.22921 129.516 5.27012C131.639 7.31102 132.688 9.84278 132.688 12.9171C132.688 15.9913 131.639 18.5231 129.516 20.564C127.393 22.6049 124.745 23.6124 121.547 23.6124H112.95V2.22168H121.547ZM121.416 18.6006C123.041 18.6006 124.404 18.0581 125.479 16.973C126.554 15.888 127.104 14.5446 127.104 12.9171C127.104 11.2895 126.554 9.94612 125.479 8.86108C124.404 7.77604 123.041 7.23352 121.416 7.23352H118.376V18.5747H121.416V18.6006Z" fill="black"/>
<path d="M140.368 9.86858C141.626 8.34436 143.146 7.56934 144.955 7.56934V12.7362C143.487 12.7362 142.36 13.072 141.547 13.7179C140.735 14.3637 140.342 15.2679 140.342 16.4046V23.6382H135.256V7.80184H140.342V9.84275L140.368 9.86858Z" fill="black"/>
<path d="M163.146 15.8104C163.146 16.3529 163.12 16.818 163.042 17.2313H151.246C151.482 18.0063 151.901 18.6005 152.478 19.0397C153.081 19.4789 153.789 19.6856 154.601 19.6856C155.912 19.6856 156.908 19.2722 157.537 18.4714H162.937C162.36 20.1247 161.285 21.4681 159.765 22.4757C158.245 23.4832 156.462 23.9999 154.47 23.9999C152.006 23.9999 149.935 23.199 148.284 21.6231C146.633 20.0472 145.794 18.0838 145.794 15.7071C145.794 13.3303 146.606 11.3928 148.258 9.79106C149.909 8.21517 151.954 7.41431 154.444 7.41431C156.934 7.41431 159.005 8.21517 160.656 9.79106C162.308 11.3669 163.12 13.382 163.12 15.7846L163.146 15.8104ZM154.47 11.7286C153.736 11.7286 153.081 11.9353 152.53 12.3745C151.954 12.8137 151.56 13.4078 151.298 14.1312H157.72C157.484 13.382 157.091 12.7878 156.488 12.3745C155.912 11.9353 155.23 11.7286 154.47 11.7286Z" fill="black"/>
<path d="M183.199 18.7555H183.514V23.6123H182.124C179.818 23.6123 178.271 22.889 177.511 21.4422C176.226 23.1473 174.549 23.974 172.452 23.974C170.355 23.974 168.441 23.1731 166.973 21.5973C165.506 20.0214 164.772 18.058 164.772 15.6812C164.772 13.3045 165.506 11.3669 166.973 9.76518C168.441 8.18929 170.276 7.38843 172.452 7.38843C174.234 7.38843 175.728 8.00845 176.908 9.22266V7.77594H181.993V17.5413C181.993 18.3163 182.386 18.7297 183.199 18.7297V18.7555ZM170.984 18.1613C171.639 18.8072 172.452 19.143 173.448 19.143C174.444 19.143 175.257 18.8072 175.912 18.1613C176.567 17.5154 176.908 16.6888 176.908 15.7329C176.908 14.777 176.567 13.9503 175.912 13.3045C175.257 12.6586 174.418 12.3228 173.448 12.3228C172.478 12.3228 171.639 12.6586 170.984 13.3045C170.329 13.9503 170.014 14.777 170.014 15.7329C170.014 16.6888 170.329 17.5154 170.984 18.1613Z" fill="black"/>
<path d="M212.269 18.7556H212.609V23.6124H211.194C207.708 23.6124 205.978 21.959 205.978 18.6781V14.7771C205.978 14.0279 205.768 13.4337 205.322 12.9687C204.877 12.5037 204.3 12.297 203.592 12.297C202.806 12.297 202.151 12.5295 201.679 12.9945C201.207 13.4596 200.945 14.0796 200.945 14.8288V23.6124H195.86V14.7771C195.86 14.0279 195.65 13.4337 195.204 12.9687C194.759 12.5037 194.182 12.297 193.474 12.297C192.688 12.297 192.033 12.5295 191.535 12.9945C191.036 13.4596 190.801 14.0796 190.801 14.8288V23.6124H185.715V7.80186H190.801V9.32608C191.954 8.06021 193.422 7.44019 195.178 7.44019C197.459 7.44019 199.11 8.29272 200.158 10.0236C201.443 8.31855 203.173 7.44019 205.348 7.44019C207.078 7.44019 208.494 7.9827 209.542 9.04191C210.591 10.1011 211.115 11.522 211.115 13.2787V17.593C211.115 18.3681 211.508 18.7814 212.321 18.7814L212.269 18.7556Z" fill="black"/>
<path d="M220.447 23.9999C218.507 23.9999 216.908 23.4832 215.624 22.4757C214.339 21.4423 213.71 20.2023 213.71 18.7297H218.769C218.769 19.1173 218.927 19.4531 219.267 19.7114C219.582 19.9698 220.001 20.1248 220.473 20.1248C220.866 20.1248 221.233 20.0215 221.522 19.8406C221.836 19.6598 221.967 19.4014 221.967 19.0914C221.967 18.4197 221.076 17.9289 219.294 17.593C215.729 16.8955 213.946 15.2163 213.946 12.5812C213.946 10.9795 214.549 9.7136 215.781 8.8094C217.013 7.9052 218.481 7.44019 220.237 7.44019C222.098 7.44019 223.671 7.93104 224.903 8.8869C226.161 9.8686 226.764 11.057 226.764 12.452H221.705C221.705 12.1162 221.574 11.8578 221.286 11.6253C221.024 11.4187 220.683 11.2895 220.29 11.2895C219.923 11.2895 219.608 11.367 219.346 11.5478C219.084 11.7287 218.979 11.9353 218.979 12.2195C218.979 12.7879 219.896 13.3046 221.758 13.7179C225.27 14.4929 227 16.1463 227 18.6264C227 20.3056 226.371 21.6232 225.087 22.5532C223.828 23.5091 222.256 23.9741 220.421 23.9741L220.447 23.9999Z" fill="black"/>
</svg>
